Coordinates
version=1
nRows=10
nColumns=28
inDegrees=yes

Units are S.I. units (second, meters, Newtons, ...)
Angles are in degrees.

endheader
time	pelvis_tilt	pelvis_list	pelvis_rotation	pelvis_tx	pelvis_ty	pelvis_tz	hip_flexion_r	hip_adduction_r	hip_rotation_r	knee_angle_r	ankle_angle_r	subtalar_angle_r	mtp_angle_r	hip_flexion_l	hip_adduction_l	hip_rotation_l	knee_angle_l	socket_flexion	socket_adduction	socket_rotation	socket_tx	socket_ty	socket_tz	foot_flex	lumbar_extension	lumbar_bending	lumbar_rotation
      0.54166667	      1.47291753	     -3.97471889	     11.20151628	      0.01670093	      0.96745588	      0.24929682	     23.10718634	      2.11361122	     -7.07303386	    -10.17503452	      4.91769083	    -19.57048027	     -5.18198089	    -23.61639349	     -6.49172026	     11.85050176	      1.91255865	      9.21292197	      0.00000000	      0.00000000	      0.00000000	      0.00000000	      0.00000000	      9.83425291	     -8.13271958	      3.73295428	    -17.33383247
      0.54583333	      1.62758021	     -4.08651628	     11.17706160	      0.02312743	      0.96616273	      0.24945423	     23.36628067	      2.30934407	     -7.06180926	    -11.26244419	      4.46120988	    -19.69995110	     -5.09116993	    -24.14064218	     -6.66885876	     11.67281435	      1.84441463	      9.24204949	      0.00000000	      0.00000000	      0.00000000	      0.00000000	      0.00000000	      9.85772536	     -8.29912321	      3.96555987	    -17.25011466
      0.55000000	      1.68637819	     -4.20206573	     11.18011145	      0.02952234	      0.96477540	      0.24957503	     23.73843594	      2.47979784	     -7.03722847	    -12.39690816	      3.98519606	    -19.78679373	     -5.01675737	    -24.51177717	     -6.83882710	     11.57931777	      1.72937294	      9.29669804	      0.00000000	      0.00000000	      0.00000000	      0.00000000	      0.00000000	      9.88946797	     -8.36548634	      4.22921644	    -17.23407362
      0.55416667	      1.68502458	     -4.29972919	     11.06149759	      0.03600366	      0.96330345	      0.24992383	     24.24624073	      2.64651247	     -7.03914176	    -13.68400235	      3.39323298	    -19.94319878	     -4.81386306	    -24.82816238	     -6.92464452	     11.32955654	      1.61019758	      9.41786953	      0.00000000	      0.00000000	      0.00000000	      0.00000000	      0.00000000	      9.90809977	     -8.34288987	      4.35174438	    -17.15759113
      0.55833333	      1.40054306	     -4.28465186	     10.78183706	      0.04233172	      0.96146417	      0.25055716	     25.05396786	      2.75864934	     -6.49290558	    -14.97453729	      2.69267057	    -20.40508504	     -3.76794758	    -24.82185390	     -6.78268300	     11.16487677	      1.40526609	      9.51961868	      0.00000000	      0.00000000	      0.00000000	      0.00000000	      0.00000000	      9.90427091	     -7.96790063	      4.37836636	    -16.72198536
      0.56250000	      1.43635308	     -4.44023048	     10.81366280	      0.04889207	      0.96017156	      0.25070284	     25.41057767	      2.96392007	     -6.48097401	    -16.10115777	      2.21113556	    -20.43131356	     -3.70727940	    -25.07195834	     -6.97925486	     11.08952866	      1.11684899	      9.55348722	      0.00000000	      0.00000000	      0.00000000	      0.00000000	      0.00000000	      9.87787915	     -8.05721371	      4.66131795	    -16.78738127
      0.56666667	      1.15901553	     -4.44161304	     10.56063692	      0.05524182	      0.95846230	      0.25146374	     26.20597751	      3.08340986	     -6.13536153	    -17.37328795	      0.97396347	    -21.40034882	     -1.34385361	    -24.91814912	     -6.84891228	     10.85993538	      0.58360956	      9.54489732	      0.00000000	      0.00000000	      0.00000000	      0.00000000	      0.00000000	      9.84293113	     -7.73871719	      4.60301338	    -16.57650047
      0.57083333	      1.04018126	     -4.49261901	     10.35950619	      0.06175092	      0.95700789	      0.25205543	     26.78277873	      3.25926721	     -5.85677754	    -18.61976419	      0.47856212	    -21.43889357	     -1.03074202	    -24.97356115	     -6.80911431	     10.63266388	      0.21646231	      9.65450061	      0.00000000	      0.00000000	      0.00000000	      0.00000000	      0.00000000	      9.76827504	     -7.61103089	      4.67500630	    -16.41887687
      0.57500000	      1.02267226	     -4.57467072	     10.22584857	      0.06825614	      0.95578385	      0.25254569	     27.19960354	      3.46086799	     -5.65774735	    -19.77509620	     -0.03298402	    -21.46876359	     -0.91485331	    -25.07107568	     -6.83251382	     10.45206434	     -0.24445629	      9.74956569	      0.00000000	      0.00000000	      0.00000000	      0.00000000	      0.00000000	      9.65481268	     -7.60283737	      4.83191853	    -16.38667697
      0.57916667	      0.77841773	     -4.59399272	      9.95318159	      0.07472130	      0.95429415	      0.25335489	     27.88666543	      3.65947389	     -5.17552286	    -21.00177864	     -0.56074702	    -21.81499931	     -0.54711989	    -24.86400110	     -6.69880457	     10.23505591	     -0.88735063	      9.78998218	      0.00000000	      0.00000000	      0.00000000	      0.00000000	      0.00000000	      9.52723087	     -7.33757623	      4.82557050	    -16.08967947
